<svg width="512" height="512" viewBox="0 0 512 512" fill="none" xmlns="http://www.w3.org/2000/svg">
<g clip-path="url(#clip0_932_2885)">
<path d="M511.5 256C509.96 341.47 494.95 410.21 451.92 451.92C410.21 494.95 341.47 509.96 256 511.5C170.53 509.96 101.79 494.95 60.08 451.92C17.05 410.21 2.04 341.47 0.5 256C2.04 170.53 17.05 101.79 60.08 60.08C101.79 17.05 170.53 2.04 256 0.5C341.47 2.04 410.21 17.05 451.92 60.08C494.95 101.79 509.96 170.53 511.5 256Z" fill="url(#paint0_linear_932_2885)"/>
<path d="M511.5 256C509.96 341.47 494.95 410.21 451.92 451.92C410.21 494.95 341.47 509.96 256 511.5C170.53 509.96 101.79 494.95 60.08 451.92C17.05 410.21 2.04 341.47 0.5 256C2.04 170.53 17.05 101.79 60.08 60.08C101.79 17.05 170.53 2.04 256 0.5C341.47 2.04 410.21 17.05 451.92 60.08C494.95 101.79 509.96 170.53 511.5 256Z" fill="url(#paint1_radial_932_2885)"/>
<path d="M254.73 241.25C299.443 241.25 335.69 205.003 335.69 160.29C335.69 115.577 299.443 79.3301 254.73 79.3301C210.017 79.3301 173.77 115.577 173.77 160.29C173.77 205.003 210.017 241.25 254.73 241.25Z" fill="white"/>
<path d="M393.5 373.19C393.5 396.72 374.43 415.8 350.89 415.8H161.11C137.58 415.8 118.5 396.73 118.5 373.19L118.56 349.39C120.27 316 147.03 287.03 186.31 271.11C191.06 269.18 196.4 269.49 201.02 271.72C217.26 279.56 235.48 283.96 254.72 283.96C274.35 283.96 292.92 279.38 309.41 271.24C314 268.97 319.33 268.62 324.1 270.5C364.24 286.29 391.71 315.62 393.43 349.46L393.5 373.19Z" fill="white"/>
</g>
<defs>
<linearGradient id="paint0_linear_932_2885" x1="58.426" y1="58.426" x2="451.75" y2="451.75" gradientUnits="userSpaceOnUse">
<stop stop-color="#8DBAF8"/>
<stop offset="0.334" stop-color="#6FAEFB"/>
<stop offset="0.765" stop-color="#4DA0FE"/>
<stop offset="1" stop-color="#409BFF"/>
</linearGradient>
<radialGradient id="paint1_radial_932_2885" cx="0" cy="0" r="1" gradientUnits="userSpaceOnUse" gradientTransform="translate(37.461 45.499) scale(319.547)">
<stop stop-color="#C2DEFF"/>
<stop offset="1" stop-color="#C2DEFF" stop-opacity="0"/>
</radialGradient>
<clipPath id="clip0_932_2885">
<rect width="512" height="512" fill="white"/>
</clipPath>
</defs>
</svg>
